<?xml version="1.0" standalone="no"?>
<!DOCTYPE svg PUBLIC "-//W3C//DTD SVG 20010904//EN"
 "http://www.w3.org/TR/2001/REC-SVG-20010904/DTD/svg10.dtd">
<svg version="1.0" xmlns="http://www.w3.org/2000/svg"
 width="300.000000pt" height="200.000000pt" viewBox="0 0 300.000000 200.000000"
 preserveAspectRatio="xMidYMid meet">
<metadata>
Created by potrace 1.10, written by Peter Selinger 2001-2011
</metadata>
<g transform="translate(0.000000,200.000000) scale(0.100000,-0.100000)"
fill="#000000" stroke="none">
<path d="M2095 1839 c-94 -8 -171 -40 -229 -94 -38 -35 -45 -46 -32 -51 14 -5
12 -12 -10 -50 -15 -25 -24 -48 -20 -51 3 -4 6 -2 6 4 0 5 13 30 30 54 35 53
105 96 127 78 7 -7 16 -9 20 -5 3 3 0 6 -7 6 -9 0 -7 5 5 14 11 8 25 12 32 9
6 -3 17 -1 24 3 6 4 27 8 45 9 28 2 32 -1 23 -12 -10 -11 -8 -12 6 -7 14 6 16
4 10 -7 -5 -8 -4 -11 1 -6 5 5 9 16 9 24 0 9 6 18 13 20 8 3 10 -2 6 -14 -4
-13 -3 -14 4 -5 14 21 58 11 54 -12 -2 -11 1 -15 7 -11 6 3 11 2 11 -4 0 -5
-8 -15 -17 -20 -17 -10 -17 -10 0 -11 10 0 20 7 23 15 4 8 10 12 15 9 18 -11
8 5 -21 34 -25 26 -37 30 -75 28 -24 -1 -47 -5 -51 -9 -4 -3 -15 -2 -25 3 -11
7 -27 7 -44 0 -24 -9 -25 -8 -15 10 6 11 18 20 28 21 111 6 206 4 247 -7 27
-7 53 -10 56 -8 4 2 25 -3 48 -11 23 -8 41 -11 41 -8 0 4 5 2 12 -5 7 -7 20
-12 29 -12 29 0 135 -78 164 -121 47 -67 65 -132 66 -241 1 -81 -3 -108 -22
-153 -12 -30 -27 -51 -32 -48 -6 4 -8 0 -4 -10 6 -17 -25 -62 -84 -118 -43
-41 -119 -141 -119 -157 0 -22 -23 -24 -51 -3 -47 35 -66 24 -30 -17 10 -12
26 -22 35 -22 10 0 14 -5 11 -11 -10 -15 5 -129 17 -129 5 0 7 3 4 8 -2 4 -6
32 -7 62 -3 52 -2 55 19 52 16 -2 20 1 16 11 -11 30 56 129 147 214 31 28 58
70 84 125 36 76 39 89 41 182 2 83 -2 113 -20 168 -49 145 -165 231 -366 270
-84 16 -185 23 -255 17z m-95 -59 c0 -5 -4 -10 -9 -10 -5 0 -17 -3 -27 -7 -16
-6 -17 -5 -4 10 17 18 40 22 40 7z"/>
<path d="M2052 1729 c-17 -27 0 -31 20 -5 12 17 13 23 4 23 -7 0 -18 -8 -24
-18z"/>
<path d="M2176 1738 c3 -4 0 -8 -6 -8 -6 0 -9 -4 -5 -9 3 -5 1 -12 -5 -16 -5
-3 -15 -16 -20 -28 -11 -22 -11 -22 5 -2 9 11 21 19 26 17 6 -1 8 2 4 8 -3 5
0 13 8 16 17 6 18 31 1 31 -7 0 -11 -4 -8 -9z"/>
<path d="M2270 1734 c0 -8 6 -11 15 -8 8 4 15 1 15 -4 0 -6 9 -10 20 -9 30 2
24 11 -15 23 -28 9 -35 8 -35 -2z"/>
<path d="M2013 1725 c-7 -8 -10 -22 -6 -32 6 -14 8 -12 15 12 9 34 7 38 -9 20z"/>
<path d="M2120 1709 c0 -5 5 -7 10 -4 6 3 10 8 10 11 0 2 -4 4 -10 4 -5 0 -10
-5 -10 -11z"/>
<path d="M2365 1709 c-9 -14 -2 -20 14 -10 8 6 9 11 3 15 -6 3 -14 1 -17 -5z"/>
<path d="M1966 1698 c3 -5 10 -6 15 -3 13 9 11 12 -6 12 -8 0 -12 -4 -9 -9z"/>
<path d="M2229 1683 c-11 -13 -11 -17 -2 -20 10 -4 10 -10 2 -25 -8 -15 -8
-19 0 -14 6 4 11 2 11 -5 0 -17 11 -4 14 17 2 9 10 18 18 20 9 1 26 5 39 9 21
6 21 4 -5 -13 -16 -11 -38 -35 -50 -54 -19 -31 -19 -32 -1 -18 38 30 84 83 79
92 -3 5 7 6 23 3 l28 -5 -27 11 c-22 8 -34 7 -58 -4 -18 -9 -30 -11 -30 -5 0
6 -10 8 -21 5 -13 -3 -18 -2 -13 3 5 4 20 10 34 13 l25 4 -26 2 c-15 0 -33 -6
-40 -16z"/>
<path d="M2190 1676 c-6 -9 -10 -21 -7 -28 4 -9 6 -7 6 4 1 9 7 18 14 21 6 2
9 7 6 11 -3 4 -12 0 -19 -8z"/>
<path d="M2346 1639 c-20 -16 -24 -24 -16 -39 7 -13 6 -21 -4 -29 -7 -6 -15
-9 -18 -6 -3 3 -11 -1 -18 -10 -7 -9 -8 -15 -2 -15 6 0 13 6 15 13 3 6 6 2 6
-11 1 -13 -3 -20 -9 -17 -6 3 -7 -1 -4 -9 8 -22 9 -21 30 22 22 42 24 64 9 74
-6 5 -4 8 5 8 8 0 21 9 28 20 15 25 11 25 -22 -1z"/>
<path d="M2392 1647 c-7 -8 -7 -18 -2 -27 6 -8 10 -10 11 -5 0 6 2 18 4 28 4
20 1 21 -13 4z"/>
<path d="M2510 1650 c12 -8 11 -10 -6 -10 -11 0 -31 -12 -45 -27 -13 -15 -16
-21 -6 -14 28 22 30 7 2 -19 -15 -14 -25 -18 -25 -11 0 11 -3 11 -15 1 -14
-11 -19 -7 -16 13 0 4 -3 7 -7 7 -5 0 -17 -18 -27 -40 -10 -22 -22 -37 -26
-34 -5 3 -9 -2 -9 -10 0 -27 21 -17 32 15 6 19 15 28 24 25 7 -3 16 -1 19 4 4
6 10 10 16 10 5 0 4 -9 -3 -19 -9 -15 -15 -17 -25 -9 -10 8 -12 6 -9 -13 3
-13 5 -33 5 -43 1 -15 4 -17 13 -8 8 8 8 15 -2 27 -10 12 -10 15 4 15 9 0 16
4 16 9 0 4 9 20 21 35 19 24 22 25 37 10 15 -15 18 -14 38 10 13 14 29 26 35
26 7 0 10 2 7 5 -8 9 -59 -6 -53 -15 6 -9 -21 -21 -29 -13 -3 3 4 15 17 26 16
15 18 19 5 14 -10 -4 -18 -3 -18 2 0 5 11 11 25 13 14 3 25 1 25 -3 0 -13 38
-11 46 3 5 7 2 9 -8 5 -9 -3 -24 1 -35 8 -10 8 -22 14 -28 15 -5 0 -3 -5 5
-10z"/>
<path d="M2437 1625 c-8 -8 -18 -11 -22 -7 -5 4 -5 1 -1 -6 6 -11 12 -10 27 4
10 9 19 19 19 21 0 7 -9 2 -23 -12z"/>
<path d="M2596 1618 c3 -5 10 -6 15 -3 5 4 9 -2 10 -12 0 -11 3 -13 6 -5 2 6
10 9 16 5 7 -4 7 0 -1 9 -13 16 -55 21 -46 6z"/>
<path d="M2152 1573 c-2 -49 0 -59 11 -55 4 1 7 -5 7 -14 0 -10 9 -5 26 16 28
33 26 54 -2 26 -21 -21 -31 -11 -37 34 -4 33 -4 33 -5 -7z"/>
<path d="M2181 1593 c0 -12 -4 -30 -7 -40 -5 -17 -5 -17 6 0 6 10 9 28 7 40
-4 22 -4 22 -6 0z"/>
<path d="M2570 1606 c0 -2 7 -7 16 -10 8 -3 12 -2 9 4 -6 10 -25 14 -25 6z"/>
<path d="M1264 1589 c-40 -14 -49 -67 -49 -294 1 -212 10 -296 41 -360 9 -19
13 -39 9 -44 -3 -6 -1 -20 5 -31 9 -16 8 -25 -1 -36 -6 -8 -8 -14 -3 -14 4 0
3 -5 -4 -12 -16 -16 -15 -33 4 -52 13 -14 14 -16 0 -16 -13 0 -14 -18 -9 -125
6 -114 5 -125 -11 -125 -13 0 -16 5 -11 20 6 20 3 20 -62 15 -37 -2 -77 -6
-88 -7 -18 -3 -20 4 -23 79 -2 68 -6 84 -21 92 -20 11 -18 40 14 192 23 110
19 120 -32 73 -15 -14 -28 -22 -29 -17 -1 4 -5 20 -8 36 -4 18 -13 27 -26 27
-11 0 -19 -4 -18 -8 2 -4 -12 -25 -29 -47 -18 -22 -33 -35 -33 -29 0 5 4 14 9
20 5 5 11 44 13 87 l4 77 -29 0 c-20 0 -26 -4 -20 -12 18 -30 9 -35 -71 -42
-134 -10 -136 -10 -136 21 0 14 -3 24 -6 21 -3 -4 -2 -32 1 -63 7 -53 20 -68
20 -22 0 21 5 22 98 25 87 2 97 1 98 -15 1 -22 9 -93 12 -102 1 -3 -19 -32
-45 -65 -27 -32 -48 -54 -48 -49 0 4 -5 1 -10 -7 -7 -11 -10 -11 -10 -2 0 7
-4 11 -8 8 -5 -3 -30 13 -56 34 -27 22 -51 40 -55 40 -4 0 -8 19 -10 42 -2 36
0 40 13 29 8 -7 17 -27 19 -44 4 -32 4 -32 5 4 2 26 -5 44 -23 63 -25 27 -27
27 -76 15 -48 -13 -52 -12 -67 9 -11 14 -22 19 -30 13 -11 -6 -9 -31 7 -128
28 -163 30 -153 -26 -133 -27 9 -56 21 -67 25 -27 12 -50 -7 -58 -46 -4 -19
-14 -70 -24 -114 -12 -59 -14 -80 -5 -83 7 -2 20 -12 29 -22 9 -9 26 -22 36
-27 17 -10 16 -11 -12 -18 -18 -3 -29 -11 -26 -16 3 -6 12 -8 20 -5 22 8 21
-28 -1 -79 -26 -57 -26 -72 -4 -109 19 -33 19 -37 5 -52 -9 -8 -18 -27 -22
-42 -3 -15 -11 -40 -19 -57 -31 -65 -24 -85 28 -83 l42 1 -38 4 c-34 4 -37 7
-31 26 4 12 13 31 20 42 8 11 14 29 14 41 0 12 9 33 20 47 25 31 26 60 3 83
-19 19 -19 56 2 88 16 25 27 76 27 122 0 26 4 34 18 34 13 0 19 14 28 67 11
63 22 83 50 83 17 0 15 -20 -13 -160 -30 -147 -30 -140 -5 -140 11 0 20 4 20
10 0 16 63 43 97 42 17 -1 37 5 43 13 17 21 24 19 60 -16 l31 -32 95 6 c87 6
95 5 106 -13 18 -28 53 -26 55 3 1 12 5 33 8 47 l7 25 23 -29 c24 -30 50 -28
40 5 -6 18 -4 18 36 4 53 -19 83 -19 99 0 14 17 50 20 50 5 0 -5 11 -17 25
-26 35 -23 71 -6 91 41 18 44 18 55 -2 55 -15 0 -16 13 -12 123 4 73 2 131 -4
141 -8 14 -5 21 11 32 30 21 28 54 -3 54 -23 0 -24 3 -19 38 3 20 12 53 21 72
12 25 16 59 14 118 -1 53 2 81 8 77 25 -15 2 310 -28 398 -18 53 -41 70 -78
56z m42 -54 c-6 -19 -14 -31 -18 -27 -10 11 3 62 17 62 9 0 10 -8 1 -35z m-34
-93 c-4 -61 -21 -99 -31 -69 -2 7 -8 15 -14 18 -12 8 0 99 14 99 5 0 9 7 9 15
0 8 6 12 14 9 10 -4 12 -21 8 -72z m67 -3 c6 -36 11 -85 11 -109 0 -37 -2 -41
-15 -30 -13 11 -14 10 -9 -4 3 -9 11 -16 16 -16 6 0 8 -29 5 -72 -3 -40 -5
-108 -6 -152 0 -66 -2 -78 -15 -73 -11 4 -13 1 -9 -11 4 -9 10 -19 14 -22 4
-3 4 -12 0 -19 -7 -11 -13 -7 -26 15 -9 16 -14 20 -10 10 13 -42 15 -85 5 -91
-6 -4 -10 7 -10 29 0 19 -4 37 -9 40 -4 3 -14 34 -21 68 -6 35 -14 72 -16 83
-8 37 -14 228 -8 247 8 27 22 22 27 -9 l4 -28 2 30 c1 17 8 39 16 49 8 11 15
38 15 60 0 51 10 90 20 79 4 -4 13 -38 19 -74z m-741 -519 l-3 -22 -29 23 -30
23 25 7 c30 7 42 -2 37 -31z m-42 -7 c28 -24 44 -45 44 -59 0 -13 4 -34 10
-48 7 -20 6 -24 -5 -20 -10 4 -18 -4 -25 -21 -13 -34 -13 -35 4 -35 8 0 17 10
19 23 2 12 5 5 6 -18 1 -39 0 -40 -33 -41 l-34 0 -16 105 c-9 58 -19 116 -22
129 -9 30 0 28 52 -15z m380 -5 c-4 -24 -9 -74 -12 -113 -3 -38 -7 -81 -10
-93 -3 -16 -1 -21 6 -17 6 4 17 -1 25 -11 13 -18 14 -18 32 -1 24 21 33 22 33
3 0 -7 6 -19 14 -25 7 -6 14 -28 14 -49 1 -80 3 -91 18 -106 8 -9 26 -16 40
-16 20 0 24 -5 24 -31 0 -26 -3 -30 -17 -24 -10 4 -29 8 -43 9 -20 1 -26 7
-28 31 -4 37 -22 85 -33 85 -4 0 -10 10 -13 23 -3 12 -3 0 -2 -26 4 -55 -2
-87 -16 -87 -6 0 -8 27 -6 65 5 99 -13 60 -22 -50 -9 -100 -15 -121 -26 -90
-4 9 -2 20 3 24 6 3 10 25 10 48 -1 23 -5 39 -9 37 -5 -3 -8 29 -8 70 0 44 -5
78 -11 82 -8 4 -7 9 2 15 8 5 -37 9 -109 9 -70 0 -121 -4 -118 -9 3 -5 -6 -12
-20 -15 -19 -5 -30 -2 -39 11 -17 23 -13 27 35 25 45 -2 47 4 31 83 -9 40 -9
39 -10 -17 0 -32 -5 -58 -10 -58 -9 0 -21 71 -21 122 l0 29 55 -42 c46 -34 56
-48 61 -80 8 -49 24 -51 24 -3 0 28 11 50 51 101 49 61 71 76 52 36 -11 -23
-7 -167 5 -171 5 -1 13 33 18 78 6 44 7 80 3 80 -12 0 -4 65 11 88 21 31 24
28 16 -20z m90 -18 c-2 -22 -6 -43 -10 -47 -3 -3 -7 -18 -7 -32 -1 -14 -5 -1
-9 29 -7 44 -5 58 7 73 22 24 23 22 19 -23z m-47 -94 c-5 -6 -9 -32 -9 -58 0
-26 -4 -48 -10 -48 -13 0 -13 22 2 117 11 75 12 77 19 38 4 -22 3 -44 -2 -49z
m341 10 c10 -13 10 -17 3 -12 -8 4 -13 1 -13 -8 0 -9 -5 -16 -11 -16 -6 0 -3
-7 6 -16 14 -14 16 -33 11 -113 -2 -53 -5 -106 -5 -117 -1 -12 -8 -25 -17 -28
-14 -6 -16 9 -12 146 3 102 8 153 15 155 7 3 9 12 6 21 -7 18 -5 17 17 -12z
m-323 -88 c-2 -13 -4 -5 -4 17 -1 22 1 32 4 23 2 -10 2 -28 0 -40z m-610 -12
c15 -19 23 -22 37 -14 10 6 36 11 57 12 37 1 39 0 38 -29 -1 -16 -3 -23 -6
-14 -4 15 -8 15 -43 -2 -40 -19 -44 -26 -55 -94 -4 -22 -16 -49 -28 -60 -19
-19 -23 -20 -39 -6 -10 9 -18 24 -18 35 0 20 0 20 -15 0 -15 -17 -15 -16 -1
12 9 18 18 49 21 70 4 22 8 48 10 59 2 11 4 28 4 38 1 24 16 21 38 -7z m38 14
c3 -5 -1 -10 -9 -10 -9 0 -16 5 -16 10 0 6 4 10 9 10 6 0 13 -4 16 -10z m150
-50 c3 -5 -3 -10 -14 -10 -12 0 -21 5 -21 10 0 6 6 10 14 10 8 0 18 -4 21 -10z
m31 -65 c0 -26 5 -40 14 -40 8 0 14 -15 16 -40 2 -22 6 -52 9 -67 4 -26 -10
-47 -23 -33 -3 3 0 10 8 15 8 6 10 10 4 10 -6 0 -10 18 -10 43 1 29 -3 41 -12
39 -7 -1 -12 5 -10 15 2 10 -4 19 -15 21 -16 3 -17 1 -5 -30 7 -18 12 -50 10
-70 -3 -33 -9 -41 -48 -64 -25 -15 -46 -25 -48 -23 -2 2 8 64 22 137 l26 133
31 -3 c28 -3 30 -6 31 -43z m294 27 c0 -4 -4 -12 -9 -17 -11 -13 -19 -95 -9
-95 5 0 8 -18 8 -40 0 -37 -7 -45 -32 -41 -13 2 -9 -27 5 -36 17 -11 -60 -23
-106 -16 -37 6 -62 23 -33 23 9 0 16 4 16 9 0 14 -25 20 -40 11 -22 -14 -33 0
-13 17 17 13 17 14 1 9 -35 -11 -17 11 23 29 58 27 77 25 104 -7 27 -32 38
-36 41 -14 1 8 -6 16 -16 19 -26 7 -47 46 -53 99 l-4 47 36 4 c69 7 81 7 81
-1z m-220 -57 c0 -46 3 -57 19 -63 19 -7 18 -8 -5 -19 -27 -13 -28 -11 -39 85
-5 43 -3 52 10 52 12 0 15 -12 15 -55z m80 27 c0 -15 6 -34 13 -41 10 -11 10
-13 0 -7 -8 4 -13 1 -13 -8 0 -8 -3 -17 -7 -19 -5 -3 -8 13 -8 34 -1 21 -7 45
-14 51 -11 11 -13 4 -9 -39 4 -40 2 -53 -8 -53 -8 0 -14 8 -14 18 0 9 -3 34
-6 55 l-7 37 37 0 c33 0 36 -2 36 -28z m253 -136 c4 -41 3 -46 -9 -34 -9 9
-12 25 -7 51 7 46 9 45 16 -17z m162 23 c10 -15 -1 -22 -24 -14 -12 3 -19 11
-16 16 8 12 32 11 40 -2z m114 -32 c28 -1 51 -3 51 -4 0 -1 -5 -14 -12 -28
-14 -31 -34 -31 -72 -1 -27 22 -31 23 -63 10 l-33 -14 22 34 c21 32 24 33 40
19 10 -9 38 -16 67 -16z m27 16 c-11 -11 -35 -12 -42 -2 -3 5 7 9 22 9 15 0
24 -3 20 -7z m-161 -23 c0 -7 -6 -15 -12 -17 -8 -3 -13 4 -13 17 0 13 5 20 13
18 6 -3 12 -11 12 -18z m-243 -22 c-7 -7 -12 -8 -12 -2 0 14 12 26 19 19 2 -3
-1 -11 -7 -17z m68 -3 c0 -8 -4 -17 -10 -20 -6 -4 -10 5 -10 20 0 15 4 24 10
20 6 -3 10 -12 10 -20z m-80 -26 c0 -5 -9 -4 -19 3 -11 7 -17 16 -14 20 5 10
33 -10 33 -23z"/>
<path d="M1290 1342 c6 -13 14 -21 18 -18 3 4 -2 14 -12 24 -18 16 -18 16 -6
-6z"/>
<path d="M1291 1260 c0 -8 4 -22 9 -30 12 -18 12 -2 0 25 -6 13 -9 15 -9 5z"/>
<path d="M1290 1195 c0 -2 7 -8 15 -15 12 -10 15 -10 15 2 0 8 -7 15 -15 15
-8 0 -15 -1 -15 -2z"/>
<path d="M836 568 c-5 -16 -12 -25 -17 -22 -14 9 -10 -1 10 -25 23 -26 30 -12
21 39 l-6 35 -8 -27z"/>
<path d="M727 473 c-8 -7 11 -33 23 -33 5 0 6 9 3 20 -5 20 -15 25 -26 13z"/>
<path d="M770 430 c-20 -7 -16 -8 23 -9 26 -1 47 4 47 9 0 12 -34 12 -70 0z"/>
<path d="M2550 1568 c-11 -12 -20 -18 -20 -12 -1 9 -24 -25 -25 -36 0 -3 -4
-12 -10 -20 -8 -13 -7 -13 8 -1 9 7 17 18 17 23 0 15 52 53 67 50 18 -4 16 5
-2 12 -8 3 -24 -4 -35 -16z"/>
<path d="M2111 1563 c-1 -13 -7 -22 -13 -20 -7 1 -12 -6 -10 -15 2 -10 -2 -18
-8 -18 -6 0 -8 -5 -4 -12 5 -8 11 -6 20 6 11 16 13 16 22 -1 14 -25 26 -10 12
16 -8 16 -8 21 2 21 9 0 10 3 2 8 -6 4 -14 14 -17 22 -4 10 -6 8 -6 -7z"/>
<path d="M2226 1545 c-3 -8 -1 -15 4 -15 6 0 10 7 10 15 0 8 -2 15 -4 15 -2 0
-6 -7 -10 -15z"/>
<path d="M2447 1532 c-21 -23 -22 -33 -2 -25 9 3 13 8 11 11 -3 3 -1 11 5 19
17 20 5 16 -14 -5z"/>
<path d="M2540 1521 c0 -5 -7 -17 -16 -25 -14 -15 -14 -16 0 -16 9 0 16 7 16
15 0 8 5 15 10 15 6 0 10 5 10 10 0 6 -4 10 -10 10 -5 0 -10 -4 -10 -9z"/>
<path d="M1810 1495 c0 -14 -4 -25 -10 -25 -16 0 -12 -14 10 -38 11 -12 20
-29 20 -39 0 -15 3 -14 19 6 13 17 24 22 39 17 11 -4 23 -3 26 2 3 6 -14 13
-39 16 -25 4 -45 12 -45 17 0 19 22 52 29 42 3 -6 24 -13 46 -17 39 -7 39 -7
17 9 -12 9 -27 13 -33 9 -6 -3 -14 -2 -18 3 -3 6 -18 13 -33 17 -25 6 -28 4
-28 -19z"/>
<path d="M2221 1511 c-9 -6 -10 -11 -2 -15 13 -8 31 1 31 15 0 11 -11 11 -29
0z"/>
<path d="M2470 1509 c0 -5 5 -7 10 -4 6 3 10 8 10 11 0 2 -4 4 -10 4 -5 0 -10
-5 -10 -11z"/>
<path d="M2282 1490 c0 -14 2 -19 5 -12 2 6 2 18 0 25 -3 6 -5 1 -5 -13z"/>
<path d="M1750 1497 c0 -1 -4 -17 -10 -35 -7 -28 -7 -32 4 -23 12 10 20 61 10
61 -2 0 -4 -1 -4 -3z"/>
<path d="M2246 1482 c-2 -4 -1 -14 5 -22 7 -12 9 -10 9 8 0 23 -5 28 -14 14z"/>
<path d="M2355 1474 c-5 -13 -9 -15 -12 -6 -6 15 -33 16 -33 1 0 -5 4 -8 9 -5
4 3 16 -3 26 -14 14 -16 16 -25 8 -43 -8 -16 -7 -25 3 -35 7 -6 15 -12 18 -12
8 0 36 62 35 79 0 9 -9 -1 -19 -23 l-18 -38 -4 36 c-2 20 0 37 6 39 6 2 5 10
-1 21 -10 17 -10 17 -18 0z"/>
<path d="M2442 1470 c0 -14 2 -19 5 -12 2 6 2 18 0 25 -3 6 -5 1 -5 -13z"/>
<path d="M2461 1474 c0 -11 3 -14 6 -6 3 7 2 16 -1 19 -3 4 -6 -2 -5 -13z"/>
<path d="M2516 1461 c-4 -7 -5 -15 -2 -18 9 -9 19 4 14 18 -4 11 -6 11 -12 0z"/>
<path d="M2550 1450 c-11 -11 -20 -26 -20 -32 0 -7 6 -4 12 7 6 11 19 25 27
32 9 7 13 13 9 13 -5 0 -17 -9 -28 -20z"/>
<path d="M2181 1444 c0 -11 3 -14 6 -6 3 7 2 16 -1 19 -3 4 -6 -2 -5 -13z"/>
<path d="M2280 1426 c4 -19 6 -38 4 -41 -2 -3 1 -1 6 3 11 9 2 72 -10 72 -4 0
-4 -16 0 -34z"/>
<path d="M2223 1428 c1 -15 6 -23 11 -18 4 4 4 16 -2 26 -9 16 -10 14 -9 -8z"/>
<path d="M2310 1431 c5 -11 15 -23 21 -27 6 -3 3 5 -6 20 -20 30 -30 35 -15 7z"/>
<path d="M2420 1431 c0 -11 5 -23 10 -26 6 -3 10 3 10 14 0 11 -4 23 -10 26
-5 3 -10 -3 -10 -14z"/>
<path d="M2457 1436 c-10 -25 -9 -38 2 -32 5 4 12 0 14 -6 4 -9 5 -8 6 2 0 8
-4 24 -8 34 -7 18 -8 18 -14 2z"/>
<path d="M2488 1423 c5 -21 7 -23 10 -9 2 10 0 22 -6 28 -6 6 -7 0 -4 -19z"/>
<path d="M2591 1434 c0 -11 3 -14 6 -6 3 7 2 16 -1 19 -3 4 -6 -2 -5 -13z"/>
<path d="M2250 1424 c0 -10 5 -26 10 -34 8 -11 9 -7 4 15 -8 37 -14 45 -14 19z"/>
<path d="M2570 1434 c0 -15 -40 -55 -49 -50 -4 3 -7 -4 -8 -14 -2 -23 19 -22
29 0 5 12 7 11 8 -5 1 -11 3 -27 4 -35 1 -8 -2 -24 -7 -35 -8 -20 -8 -20 7 -1
16 20 16 20 17 0 0 -18 1 -18 8 1 9 21 4 38 -8 31 -11 -7 -11 77 1 91 6 8 8
16 4 20 -3 3 -6 2 -6 -3z"/>
<path d="M2180 1388 c0 -19 -2 -20 -10 -8 -9 13 -10 13 -10 0 0 -20 16 -44 22
-34 12 22 18 64 8 64 -5 0 -10 -10 -10 -22z"/>
<path d="M2577 1391 c-4 -17 -3 -21 5 -13 5 5 8 16 6 23 -3 8 -7 3 -11 -10z"/>
<path d="M2605 1398 c-10 -26 -2 -43 12 -26 7 8 8 19 3 28 -8 12 -10 12 -15
-2z"/>
<path d="M2320 1369 c10 -17 9 -23 -1 -30 -16 -9 -52 8 -44 22 4 5 -1 9 -10 9
-12 0 -15 -5 -11 -16 3 -9 6 -20 6 -25 0 -5 23 -9 50 -9 41 0 56 -5 77 -26 23
-23 25 -31 20 -76 -4 -27 -16 -65 -27 -84 -12 -19 -20 -39 -18 -46 6 -16 42
47 62 105 14 41 14 52 2 80 -15 36 -62 81 -76 72 -6 -3 -8 0 -5 7 3 7 -4 19
-15 26 -20 12 -20 12 -10 -9z"/>
<path d="M2455 1369 c4 -6 13 -8 21 -5 18 7 19 -25 2 -43 -11 -11 -9 -11 9 0
26 16 17 51 -16 56 -14 2 -20 -1 -16 -8z"/>
<path d="M2200 1359 c0 -8 7 -24 15 -35 11 -14 14 -15 14 -4 0 8 -6 24 -14 34
-11 15 -15 16 -15 5z"/>
<path d="M2290 1361 c0 -6 4 -12 8 -15 5 -3 9 1 9 9 0 8 -4 15 -9 15 -4 0 -8
-4 -8 -9z"/>
<path d="M2117 1354 c-13 -13 -7 -26 9 -20 12 4 15 2 10 -9 -3 -8 -1 -15 5
-15 6 0 8 -4 5 -8 -2 -4 -1 -13 3 -20 5 -9 13 -6 29 8 12 12 22 26 22 33 0 6
-7 1 -16 -11 -20 -29 -38 -29 -23 1 6 12 8 19 4 15 -4 -4 -15 2 -24 13 -9 11
-20 17 -24 13z"/>
<path d="M762 1341 c-8 -5 -27 -7 -42 -6 -20 2 -27 -1 -23 -11 3 -9 14 -12 32
-8 43 11 45 10 49 -14 3 -18 8 -22 20 -16 9 4 24 7 33 8 19 0 19 17 0 40 -18
21 -45 21 -37 0 4 -10 2 -14 -6 -11 -7 2 -12 10 -10 16 2 13 1 13 -16 2z m52
-35 c-21 -15 -30 -14 -19 3 3 6 14 11 23 11 13 0 13 -2 -4 -14z"/>
<path d="M1654 1335 c17 -40 32 -65 38 -65 4 0 3 11 -2 24 -9 24 -8 24 28 20
20 -2 30 -1 22 2 -8 4 -22 13 -30 20 -18 15 -63 15 -56 -1z"/>
<path d="M2090 1333 c0 -13 5 -23 10 -23 13 0 13 11 0 30 -8 12 -10 11 -10 -7z"/>
<path d="M2600 1320 c6 -11 12 -20 14 -20 2 0 2 9 -1 20 -3 11 -9 20 -15 20
-5 0 -4 -9 2 -20z"/>
<path d="M665 1267 c-9 -72 -14 -170 -8 -179 2 -4 16 -2 31 3 15 6 70 11 122
12 56 0 85 4 70 8 l-25 7 25 1 c18 1 21 4 12 13 -9 9 -18 9 -37 0 -15 -7 -31
-9 -37 -6 -6 4 -8 2 -5 -3 4 -7 -9 -9 -37 -6 -25 3 -58 1 -74 -5 l-30 -10 2
44 c1 40 7 49 30 45 4 -1 15 4 23 11 12 9 17 9 25 -3 8 -12 9 -12 5 1 -4 16
-28 18 -65 6 -21 -7 -22 -5 -17 21 9 44 11 93 3 93 -3 0 -10 -24 -13 -53z"/>
<path d="M2505 1310 c-3 -5 -1 -10 4 -10 6 0 11 5 11 10 0 6 -2 10 -4 10 -3 0
-8 -4 -11 -10z"/>
<path d="M695 1260 c0 -32 2 -37 16 -30 9 5 26 6 39 3 16 -4 21 -3 16 5 -4 7
-18 12 -32 12 -13 0 -25 5 -25 10 -1 6 -2 14 -3 19 -3 27 -11 14 -11 -19z"/>
<path d="M820 1279 c0 -6 -4 -7 -10 -4 -5 3 -10 1 -10 -5 0 -6 -4 -9 -9 -5 -5
3 -12 1 -16 -4 -3 -6 4 -8 17 -5 70 17 74 16 38 -4 -19 -11 -39 -17 -44 -14
-5 3 -6 0 -3 -6 4 -5 16 -8 26 -5 16 4 19 1 14 -17 -4 -15 -9 -18 -16 -11 -13
13 -40 15 -32 2 8 -14 -16 -26 -47 -22 -16 1 -28 -2 -28 -8 0 -5 16 -8 38 -6
53 4 52 4 50 13 -2 4 2 8 7 10 6 1 10 -6 10 -15 0 -15 -10 -19 -52 -21 -28 -2
-57 -9 -63 -17 -10 -12 -6 -12 24 -4 20 6 41 7 47 4 5 -4 21 0 34 9 20 13 24
14 29 0 5 -13 8 -13 29 1 13 8 27 13 30 10 4 -3 3 1 -3 7 -8 9 -15 10 -28 2
-13 -8 -20 -8 -30 2 -7 8 -8 15 -2 19 6 3 10 1 10 -5 0 -7 6 -8 19 -1 10 6 21
7 25 4 3 -3 6 -1 6 6 0 9 -9 12 -23 9 -15 -3 -24 0 -24 8 0 7 10 10 24 8 15
-3 22 -1 18 6 -3 5 -15 10 -26 10 -12 0 -17 4 -14 11 4 6 13 8 20 5 8 -3 12 2
11 11 -3 18 -46 39 -46 22z"/>
<path d="M2287 1283 c-11 -11 -8 -58 5 -71 29 -29 39 -1 11 30 -17 19 -16 19
12 12 17 -4 36 -11 43 -17 24 -19 25 3 2 28 -22 24 -59 33 -73 18z"/>
<path d="M730 1270 c-12 -8 -11 -10 8 -10 12 0 22 5 22 10 0 13 -11 13 -30 0z"/>
<path d="M2191 1258 c-26 -27 -17 -44 9 -18 11 11 30 20 43 21 21 0 21 1 2 9
-29 13 -32 12 -54 -12z"/>
<path d="M2592 1260 c0 -14 2 -19 5 -12 2 6 2 18 0 25 -3 6 -5 1 -5 -13z"/>
<path d="M2553 1252 c-3 -14 -10 -19 -21 -15 -10 4 -14 3 -11 -1 4 -4 17 -9
29 -11 12 -2 20 -2 16 2 -3 3 -1 12 5 19 7 8 7 14 -1 19 -7 4 -14 -2 -17 -13z"/>
<path d="M1654 1225 c-4 -10 -2 -30 3 -44 6 -14 21 -51 33 -81 12 -30 26 -63
31 -72 12 -23 11 -51 0 -44 -5 4 -8 -1 -7 -9 4 -27 13 -26 35 1 43 54 17 165
-54 234 -31 30 -35 31 -41 15z m56 -56 c0 -5 -7 -9 -15 -9 -15 0 -20 12 -9 23
8 8 24 -1 24 -14z m26 -65 c11 -27 12 -40 4 -48 -8 -8 -9 -6 -5 7 4 10 2 17
-5 17 -6 0 -9 4 -5 9 3 5 1 12 -5 16 -10 6 -14 35 -4 35 3 0 12 -16 20 -36z"/>
<path d="M2223 1204 c-13 -14 -23 -27 -23 -29 0 -3 69 1 88 4 5 2 -31 51 -37
51 -3 0 -16 -12 -28 -26z"/>
<path d="M1771 1204 c0 -11 3 -14 6 -6 3 7 2 16 -1 19 -3 4 -6 -2 -5 -13z"/>
<path d="M2335 1190 c-4 -7 -21 -18 -39 -26 -23 -10 -26 -13 -11 -13 23 -1 73
34 63 44 -3 3 -9 1 -13 -5z"/>
<path d="M2371 1182 c-21 -39 -154 -101 -188 -88 -12 5 -14 1 -8 -21 7 -30 49
-73 71 -73 23 0 16 18 -12 33 -25 13 -25 14 -8 31 9 10 25 15 36 13 10 -3 16
-2 13 2 -2 4 11 15 29 24 34 16 94 83 83 93 -3 3 -10 -3 -16 -14z"/>
<path d="M1372 1080 c0 -14 2 -19 5 -12 2 6 2 18 0 25 -3 6 -5 1 -5 -13z"/>
<path d="M714 1071 c18 -7 66 -3 66 5 0 2 -19 4 -42 3 -31 0 -37 -3 -24 -8z"/>
<path d="M2235 1060 c-3 -5 -1 -10 4 -10 6 0 11 5 11 10 0 6 -2 10 -4 10 -3 0
-8 -4 -11 -10z"/>
<path d="M2316 1028 c3 -13 8 -25 10 -27 6 -7 22 10 27 30 4 16 3 19 -6 10
-14 -14 -30 -15 -22 -1 3 6 1 10 -5 10 -7 0 -9 -8 -4 -22z"/>
<path d="M1807 1019 c4 -13 8 -18 11 -10 2 7 -1 18 -6 23 -8 8 -9 4 -5 -13z"/>
<path d="M2336 982 c-3 -6 -1 -14 5 -17 15 -10 25 3 12 16 -7 7 -13 7 -17 1z"/>
<path d="M2117 953 c-4 -3 -7 -13 -7 -22 1 -13 3 -13 11 2 11 19 8 33 -4 20z"/>
<path d="M722 930 c0 -14 2 -19 5 -12 2 6 2 18 0 25 -3 6 -5 1 -5 -13z"/>
<path d="M2327 939 c8 -8 16 -8 30 0 16 9 14 10 -11 11 -22 0 -27 -3 -19 -11z"/>
<path d="M1700 929 c0 -6 9 -24 20 -40 12 -15 27 -50 35 -78 10 -31 22 -50 34
-54 14 -3 17 0 14 14 -3 9 -11 20 -19 23 -8 3 -14 20 -14 40 0 19 -7 41 -15
50 -9 8 -12 22 -8 32 5 13 3 16 -10 11 -9 -3 -17 -2 -17 3 0 6 -4 10 -10 10
-5 0 -10 -5 -10 -11z"/>
<path d="M1873 835 c0 -8 4 -15 9 -15 4 0 8 4 8 9 0 6 -4 12 -8 15 -5 3 -9 -1
-9 -9z"/>
<path d="M2051 828 c-14 -23 -14 -23 8 -4 22 20 25 26 13 26 -4 0 -13 -10 -21
-22z"/>
<path d="M1995 810 c-3 -5 -11 -7 -18 -4 -7 2 -37 -4 -67 -15 -30 -11 -48 -20
-39 -20 9 -1 35 5 57 13 32 12 43 12 51 2 25 -29 30 -67 21 -146 -7 -63 -15
-88 -36 -115 -15 -20 -24 -38 -21 -41 3 -3 19 15 35 42 24 37 31 43 34 28 7
-28 31 61 30 111 0 69 -5 104 -13 99 -11 -6 -31 34 -24 46 3 6 4 10 1 10 -3 0
-7 -4 -11 -10z m32 -152 c-3 -8 -6 -5 -6 6 -1 11 2 17 5 13 3 -3 4 -12 1 -19z"/>
<path d="M2060 805 c-7 -8 -17 -12 -23 -8 -6 3 -7 1 -3 -5 10 -17 19 -15 34 8
14 23 10 26 -8 5z"/>
<path d="M2446 685 c4 -8 10 -15 14 -15 4 0 34 -44 67 -97 33 -54 74 -121 91
-148 48 -76 73 -172 79 -310 3 -67 9 -111 13 -100 13 36 1 178 -23 271 -23 91
-34 110 -176 335 -34 55 -77 97 -65 64z"/>
<path d="M226 491 c-4 -5 0 -12 6 -14 8 -3 6 -6 -4 -6 -14 -1 -18 -10 -18 -40
0 -55 30 -62 76 -15 19 19 42 34 52 34 14 0 15 2 2 9 -8 6 -18 7 -22 5 -4 -3
-5 3 -2 13 5 17 5 17 -9 0 -14 -16 -15 -16 -22 5 -7 22 -7 22 -12 3 -3 -11 -9
-24 -14 -29 -5 -6 -5 -14 1 -21 6 -7 3 -11 -10 -12 -29 -2 -32 11 -10 37 19
22 19 40 0 40 -5 0 -11 -4 -14 -9z"/>
<path d="M1868 461 c-69 -57 -148 -159 -148 -193 0 -7 10 7 22 32 12 24 58 79
101 122 43 43 77 78 75 78 -2 -1 -24 -18 -50 -39z"/>
<path d="M281 390 c-6 -18 -8 -36 -5 -41 8 -13 -16 -119 -26 -119 -18 0 -32
-44 -35 -105 -2 -35 -6 -77 -10 -94 -5 -24 -3 -31 9 -31 10 0 17 13 21 38 20
130 27 152 45 142 27 -14 51 17 27 34 -10 8 -15 22 -12 37 20 103 10 206 -14
139z m-42 -239 c-6 -29 -13 -50 -15 -48 -3 2 1 28 7 56 6 29 13 50 15 48 3 -2
-1 -28 -7 -56z m66 49 c8 -13 -15 -13 -35 0 -12 8 -11 10 7 10 12 0 25 -4 28
-10z m-78 -162 c-3 -8 -6 -5 -6 6 -1 11 2 17 5 13 3 -3 4 -12 1 -19z"/>
<path d="M1693 192 c-12 -31 -21 -58 -19 -59 6 -6 47 88 44 101 -2 8 -13 -11
-25 -42z"/>
<path d="M2161 203 c-10 -26 -10 -27 4 -9 8 11 15 23 15 28 0 15 -7 8 -19 -19z"/>
<path d="M1680 100 c-7 -17 -10 -33 -7 -37 3 -3 9 6 13 21 3 14 10 23 15 20 5
-3 9 2 9 10 0 26 -17 18 -30 -14z"/>
<path d="M1656 105 c-3 -9 -6 -22 -5 -28 0 -7 5 -1 10 12 5 13 8 26 5 28 -2 2
-6 -3 -10 -12z"/>
<path d="M2112 75 c0 -16 2 -22 5 -12 2 9 2 23 0 30 -3 6 -5 -1 -5 -18z"/>
<path d="M1640 56 c0 -2 7 -9 15 -16 9 -7 15 -8 15 -2 0 5 -7 12 -15 16 -8 3
-15 4 -15 2z"/>
<path d="M1687 41 c-4 -17 -3 -21 5 -13 5 5 8 16 6 23 -3 8 -7 3 -11 -10z"/>
<path d="M475 10 c-4 -6 7 -10 25 -10 18 0 29 4 25 10 -3 6 -15 10 -25 10 -10
0 -22 -4 -25 -10z"/>
</g>
</svg>
