<?xml version="1.0" standalone="no"?>
<!DOCTYPE svg PUBLIC "-//W3C//DTD SVG 20010904//EN"
 "http://www.w3.org/TR/2001/REC-SVG-20010904/DTD/svg10.dtd">
<svg version="1.0" xmlns="http://www.w3.org/2000/svg"
 width="300.000000pt" height="169.000000pt" viewBox="0 0 300.000000 169.000000"
 preserveAspectRatio="xMidYMid meet">
<metadata>
Created by potrace 1.10, written by Peter Selinger 2001-2011
</metadata>
<g transform="translate(0.000000,169.000000) scale(0.100000,-0.100000)"
fill="#000000" stroke="none">
<path d="M2089 1519 c-68 -10 -132 -56 -162 -116 -17 -32 -34 -82 -57 -163 -6
-25 -16 -53 -21 -62 -5 -10 -9 -27 -9 -37 0 -11 -4 -23 -10 -26 -5 -3 -10 -16
-10 -27 0 -22 -5 -39 -39 -142 -11 -33 -18 -63 -15 -68 3 -5 0 -16 -7 -24 -18
-22 -15 -148 4 -178 20 -30 90 -86 140 -111 43 -22 44 -38 13 -125 -20 -58
-20 -85 2 -122 16 -28 16 -30 0 -42 -12 -9 -35 -10 -80 -5 -35 4 -97 10 -138
13 -41 4 -115 11 -165 16 -101 10 -183 17 -300 25 -44 3 -93 8 -110 10 -61 10
-113 14 -210 20 -55 3 -118 8 -140 10 -22 3 -74 7 -115 10 -41 3 -102 8 -135
11 -33 3 -82 7 -110 10 -27 2 -88 6 -135 9 -47 2 -129 7 -183 11 -66 4 -97 3
-97 -4 0 -12 39 -17 260 -32 281 -19 778 -60 1225 -101 381 -34 440 -37 447
-25 7 13 13 13 50 0 24 -8 45 -11 51 -5 5 5 -6 11 -26 15 -20 4 -37 14 -41 24
-3 9 -15 30 -28 45 l-23 28 23 87 c23 87 42 125 42 85 0 -21 35 -39 46 -22 3
5 -1 9 -8 10 -7 0 -4 4 7 9 18 8 18 9 2 9 -34 2 -196 92 -227 127 -30 34 -38
76 -31 154 3 32 2 31 46 34 21 2 41 9 45 16 5 8 9 6 12 -8 4 -15 18 -21 64
-27 33 -4 74 -13 93 -21 43 -18 61 -17 37 1 -20 15 -20 15 0 15 26 0 111 -33
127 -49 10 -11 8 -12 -8 -4 -11 6 -38 13 -60 17 -36 5 -33 3 20 -17 65 -26 75
-25 75 3 0 43 -387 137 -410 100 -7 -12 -12 -12 -21 -3 -20 20 8 43 51 43 21
0 41 6 43 13 4 7 6 6 6 -4 1 -12 16 -18 61 -23 33 -4 79 -14 103 -22 29 -10
38 -11 29 -2 -22 22 -13 29 18 13 16 -8 36 -15 45 -15 18 0 21 -20 3 -21 -7 0
7 -8 32 -18 50 -20 60 -18 60 8 0 14 -25 26 -112 54 -124 40 -144 44 -234 52
-52 4 -63 2 -68 -12 -5 -12 -10 -13 -18 -5 -17 17 18 52 51 51 24 0 24 -1 6
-9 -16 -7 -17 -9 -3 -9 9 -1 24 9 34 22 11 15 15 16 11 5 -5 -15 0 -18 31 -19
20 0 67 -8 105 -18 37 -9 67 -14 67 -9 0 4 -5 8 -12 8 -6 0 -8 3 -5 7 9 8 127
-29 127 -41 0 -4 -10 -6 -22 -2 -62 17 -67 14 -13 -7 33 -13 64 -20 69 -16 22
19 -10 40 -114 74 -127 42 -275 60 -291 34 -7 -11 -10 -12 -21 -1 -19 20 18
44 57 37 16 -2 24 -2 18 1 -19 9 -16 24 4 17 11 -4 14 -3 9 6 -4 6 -4 20 0 29
12 29 13 42 1 42 -7 0 -3 7 7 15 11 8 14 15 8 15 -7 0 -12 5 -12 10 0 6 9 10
21 10 11 0 17 5 14 10 -3 6 -1 10 4 10 6 0 11 -7 11 -15 0 -11 11 -15 38 -15
36 -1 93 -11 140 -25 18 -6 21 -4 16 10 -6 14 -3 16 17 10 13 -4 47 -18 74
-31 46 -22 39 -25 -25 -10 -22 6 -22 5 -5 -4 24 -12 76 -32 91 -35 6 -2 9 7 6
21 -3 19 -20 29 -89 54 -116 41 -155 49 -246 50 -60 0 -79 -3 -83 -15 -9 -22
-24 -18 -24 5 0 18 10 25 33 21 4 0 7 4 7 11 0 18 206 3 237 -17 24 -16 25
-16 18 4 -4 12 -2 21 4 21 6 0 11 -4 11 -10 0 -5 7 -7 15 -4 8 4 21 2 28 -4 6
-5 27 -13 44 -17 18 -3 36 -11 39 -17 5 -8 -4 -9 -27 -4 -36 7 -30 -3 14 -22
23 -10 29 -9 34 5 9 23 -16 38 -123 73 -139 47 -294 54 -294 14 0 -14 -3 -14
-15 -4 -23 19 0 40 45 40 24 0 40 5 44 15 3 8 0 15 -7 15 -8 0 -6 4 3 10 12 8
9 10 -11 10 -19 0 -28 -6 -33 -22 -4 -17 -8 -20 -17 -11 -25 25 -1 41 77 55
66 11 83 18 111 46 18 18 31 37 28 42 -3 4 1 10 7 13 7 2 1 4 -14 3 -14 0 -26
-3 -25 -6 3 -9 -37 -70 -45 -70 -12 0 -10 14 7 36 8 10 15 25 15 33 0 20 -40
-17 -52 -49 -6 -14 -12 -20 -15 -13 -2 7 1 22 7 34 9 17 9 20 -1 17 -7 -2 -20
-20 -31 -38 -10 -19 -18 -29 -18 -21 0 8 -8 3 -20 -10 -16 -20 -19 -21 -20 -6
0 27 77 96 124 108 52 14 189 6 236 -14 34 -14 33 -14 -47 -11 -54 3 -83 0
-83 -7 0 -5 6 -7 13 -3 7 4 9 3 4 -2 -5 -5 -14 -9 -20 -9 -7 -1 -11 -6 -9 -13
1 -7 -2 -12 -8 -12 -5 0 -10 -7 -10 -15 0 -17 27 -20 50 -5 12 8 12 12 2 18
-26 17 15 33 93 36 74 3 79 1 134 -34 122 -79 204 -206 183 -284 -10 -37 -36
-50 -27 -13 6 21 -1 29 -55 66 -34 22 -66 39 -70 36 -13 -8 -18 -42 -6 -42 19
0 116 -64 111 -73 -3 -5 4 -14 15 -20 23 -12 26 -38 5 -46 -10 -4 -12 -15 -9
-33 4 -19 1 -30 -9 -34 -9 -3 -13 -14 -10 -31 4 -17 0 -28 -9 -31 -10 -4 -13
-16 -10 -35 3 -22 0 -30 -11 -30 -9 0 -17 10 -19 22 -3 24 -102 92 -123 85
-27 -9 -11 -34 40 -61 31 -16 52 -33 48 -39 -4 -6 0 -8 11 -4 11 5 15 3 10 -5
-4 -6 -3 -8 4 -4 11 7 25 -9 28 -32 2 -7 -4 -16 -11 -19 -10 -3 -12 -14 -8
-34 3 -18 1 -29 -6 -29 -6 0 -14 -1 -18 -2 -5 -2 -8 5 -8 16 0 22 -107 81
-130 72 -28 -10 -15 -26 49 -58 36 -17 63 -35 61 -39 -3 -4 3 -6 13 -5 12 1
17 -6 17 -23 0 -30 -21 -39 -28 -12 -5 22 -122 86 -137 76 -25 -15 -4 -38 67
-72 43 -21 79 -45 81 -54 4 -24 -46 -79 -93 -100 -42 -19 -129 -24 -175 -9
-25 8 -25 8 5 10 26 1 27 3 10 9 -11 5 -28 4 -37 -1 -15 -7 -17 -5 -15 11 5
30 11 33 71 34 40 1 53 4 46 12 -6 7 -5 17 3 25 8 10 5 9 -8 -1 -12 -10 -34
-14 -57 -12 -24 2 -38 -1 -38 -8 0 -6 -9 -9 -19 -6 -13 3 -18 0 -15 -8 3 -7
-2 -15 -10 -18 -34 -13 -13 -33 58 -56 40 -13 83 -22 95 -18 11 3 21 3 21 0 0
-3 -23 -49 -52 -102 -51 -95 -75 -124 -91 -114 -5 3 -1 -6 8 -21 12 -17 26
-26 44 -26 15 0 32 -5 38 -11 5 -5 163 -26 349 -44 186 -19 354 -37 372 -40
23 -4 32 -2 32 8 0 10 -30 17 -117 26 -65 6 -163 16 -218 22 -153 15 -368 40
-391 44 -31 7 -47 68 -29 111 29 69 84 143 112 150 15 4 39 18 53 31 13 12 28
23 32 23 9 0 37 51 41 77 2 10 9 31 15 46 7 16 15 46 18 68 4 22 11 42 15 45
5 3 9 16 9 30 0 13 4 32 9 42 14 27 30 83 37 130 4 23 11 45 15 48 5 3 9 18 9
34 0 16 5 32 11 35 14 10 2 106 -20 157 -55 126 -246 249 -401 257 -30 1 -57
4 -60 5 -3 1 -26 -1 -51 -5z m-193 -370 c-29 -23 -42 -20 -33 6 4 8 18 15 33
15 l27 0 -27 -21z m18 -25 c3 -9 2 -12 -5 -9 -6 4 -13 -2 -16 -14 -3 -11 -9
-19 -13 -16 -4 3 -11 -3 -14 -12 -5 -13 -9 -14 -19 -4 -9 10 -5 19 23 42 40
34 36 33 44 13z m326 -204 c0 -5 -5 -10 -11 -10 -5 0 -7 5 -4 10 3 6 8 10 11
10 2 0 4 -4 4 -10z m-30 -72 c0 -5 -9 -4 -20 2 -11 6 -20 12 -20 14 0 2 9 2
20 -1 11 -3 20 -9 20 -15z m18 -594 c-3 -13 -5 -13 -23 -1 -17 13 -17 17 -5
32 12 15 14 15 22 0 5 -8 8 -22 6 -31z"/>
<path d="M2225 1429 c3 -3 -9 -19 -25 -35 -37 -37 -37 -44 0 -44 17 0 30 5 30
11 0 5 -4 7 -10 4 -14 -9 -13 8 2 23 20 20 61 13 118 -21 39 -23 56 -40 58
-58 2 -13 8 -28 14 -34 7 -7 8 -3 4 12 -4 13 -3 30 1 38 7 12 12 8 23 -20 7
-19 21 -37 31 -40 9 -3 36 -28 59 -55 49 -58 71 -67 36 -15 -38 56 -149 165
-168 165 -9 0 -20 5 -23 10 -13 22 -81 57 -117 62 -20 2 -35 1 -33 -3z"/>
<path d="M2014 1345 c-9 -22 -7 -23 71 -34 39 -5 81 -12 95 -16 25 -6 25 -6 5
10 -19 16 -19 17 15 10 19 -4 46 -12 59 -16 20 -8 21 -11 10 -26 -8 -10 -9
-14 -2 -10 6 4 28 -2 47 -14 28 -16 37 -18 40 -7 7 21 3 48 -6 42 -4 -3 -52
10 -105 29 -119 42 -220 56 -229 32z m311 -75 c3 -5 -1 -10 -9 -10 -9 0 -16 5
-16 10 0 6 4 10 9 10 6 0 13 -4 16 -10z"/>
<path d="M2345 1062 c-68 -234 -76 -267 -35 -152 39 109 104 340 97 346 -2 2
-30 -85 -62 -194z"/>
<path d="M1960 1144 c0 -8 -8 -26 -17 -41 -33 -50 -28 -58 35 -60 32 -1 77 -9
101 -18 55 -19 72 -19 46 1 -20 15 -20 15 0 11 52 -9 108 -32 113 -46 11 -32
42 -36 42 -6 0 32 -298 121 -323 96 -6 -6 -16 -11 -21 -11 -6 1 -1 9 11 19 12
10 19 22 15 26 -4 3 4 4 18 1 14 -3 43 -7 65 -10 22 -3 53 -10 68 -15 36 -14
37 -14 31 4 -8 20 0 19 66 -6 59 -22 80 -36 55 -36 -8 0 -15 4 -15 9 0 5 -5 6
-11 2 -8 -4 -3 -12 12 -20 34 -19 49 -17 49 5 0 31 -167 91 -292 105 -39 5
-48 3 -48 -10z"/>
<path d="M2420 1140 c0 -14 15 -27 50 -45 27 -14 55 -35 61 -47 l12 -22 9 23
c11 30 6 36 -58 77 -61 39 -74 42 -74 14z"/>
<path d="M2402 1073 c2 -10 26 -31 55 -47 29 -16 51 -34 50 -39 -4 -19 22 -17
28 2 9 28 2 37 -58 71 -59 34 -80 37 -75 13z"/>
<path d="M2387 1023 c-17 -16 -3 -35 43 -58 27 -14 54 -34 61 -46 13 -26 32
-12 27 22 -2 16 -21 32 -64 56 -33 18 -64 30 -67 26z"/>
<path d="M2170 1002 c8 -5 26 -13 40 -16 17 -5 20 -4 10 2 -8 5 -26 13 -40 16
-17 5 -20 4 -10 -2z"/>
<path d="M2345 880 c-10 -15 3 -28 48 -52 23 -11 48 -28 54 -37 12 -15 14 -14
28 3 19 24 15 29 -49 65 -57 33 -71 37 -81 21z"/>
<path d="M1789 838 c0 -2 -2 -30 -4 -63 -3 -55 -3 -56 4 -13 7 49 16 66 28 55
4 -4 1 -13 -5 -19 -30 -30 0 -126 49 -157 20 -13 19 -10 -8 22 -40 46 -46 116
-13 144 11 10 20 21 20 25 0 7 -68 12 -71 6z"/>
<path d="M2266 805 c-3 -9 -6 -24 -5 -33 0 -9 5 -4 10 12 9 32 6 48 -5 21z"/>
<path d="M1858 798 c-16 -13 -21 -32 -19 -76 1 -27 76 -110 123 -135 24 -14
28 -14 13 -2 -96 77 -123 123 -107 185 5 22 9 40 8 40 -1 0 -9 -6 -18 -12z"/>
<path d="M1950 800 c0 -5 5 -10 10 -10 6 0 10 5 10 10 0 6 -4 10 -10 10 -5 0
-10 -4 -10 -10z"/>
<path d="M1891 776 c-25 -30 -2 -87 58 -146 31 -30 55 -59 53 -64 -2 -5 4 -4
12 4 9 7 16 8 16 3 0 -5 9 -9 19 -10 25 -2 21 26 -5 39 -18 9 -18 9 0 -6 25
-20 14 -21 -23 -2 -38 20 -91 82 -93 109 -1 12 -3 31 -4 42 -1 11 -2 26 -3 33
-1 16 -16 15 -30 -2z"/>
<path d="M2040 775 c0 -8 2 -15 4 -15 2 0 6 7 10 15 3 8 1 15 -4 15 -6 0 -10
-7 -10 -15z"/>
<path d="M1957 773 c-12 -11 -8 -73 7 -101 8 -15 24 -36 37 -47 19 -17 19 -14
-4 13 -42 52 -32 56 19 7 25 -25 50 -45 55 -45 5 0 9 -7 9 -15 0 -17 25 -20
35 -5 3 6 -1 10 -9 10 -9 0 -15 3 -14 8 1 4 -14 23 -34 43 -20 20 -40 49 -43
65 -14 65 -36 90 -58 67z m33 -51 c0 -15 -2 -15 -10 -2 -13 20 -13 33 0 25 6
-3 10 -14 10 -23z"/>
<path d="M2251 734 c0 -11 3 -14 6 -6 3 7 2 16 -1 19 -3 4 -6 -2 -5 -13z"/>
<path d="M2050 688 c0 -9 7 -19 16 -22 25 -10 27 -1 4 19 -17 15 -20 16 -20 3z"/>
<path d="M2270 680 c-6 -11 -8 -20 -6 -20 3 0 10 9 16 20 6 11 8 20 6 20 -3 0
-10 -9 -16 -20z"/>
<path d="M2226 673 c-6 -14 -5 -15 5 -6 7 7 10 15 7 18 -3 3 -9 -2 -12 -12z"/>
<path d="M2346 661 c-13 -20 -25 -61 -18 -61 4 0 12 16 18 35 11 34 11 44 0
26z"/>
<path d="M2377 638 c-8 -28 -1 -35 21 -22 22 14 22 38 1 42 -10 2 -19 -6 -22
-20z"/>
<path d="M2077 523 c-12 -11 -8 -31 7 -36 10 -4 12 1 9 16 -3 13 -1 18 4 11 9
-12 47 -34 59 -34 4 0 -10 11 -30 25 -41 28 -40 28 -49 18z"/>
<path d="M1970 424 c-12 -31 -13 -81 -1 -88 4 -3 6 5 4 17 -3 13 2 39 11 58
l15 34 -5 -47 c-5 -35 -3 -48 7 -48 7 0 10 2 7 6 -3 3 2 22 12 42 13 27 15 39
7 44 -24 15 -48 8 -57 -18z"/>
<path d="M2092 434 c-14 -9 -21 -22 -18 -31 3 -8 2 -11 -4 -8 -14 9 -23 -60
-11 -84 13 -23 2 -28 -17 -9 -9 9 -12 7 -12 -10 0 -16 6 -22 24 -22 40 0 86
-12 80 -21 -3 -5 0 -9 5 -9 14 0 14 13 -1 28 -8 8 -5 14 14 21 29 11 58 47 57
71 0 10 -4 7 -11 -7 -14 -30 -24 -29 -32 1 -3 13 -9 31 -12 40 -8 21 10 21 30
0 12 -12 16 -12 16 -2 0 10 3 9 10 -2 5 -8 10 -11 10 -7 0 5 -9 22 -21 38 -24
34 -70 39 -107 13z m83 -4 c-3 -5 -12 -10 -18 -10 -7 0 -6 4 3 10 19 12 23 12
15 0z m-67 -41 l-21 -40 22 -30 c14 -19 17 -29 9 -29 -7 0 -21 11 -30 24 -17
23 -17 27 -1 70 10 25 23 46 30 46 9 0 6 -12 -9 -41z m45 -34 c12 -34 13 -45
3 -45 -27 0 -44 25 -39 58 7 44 18 40 36 -13z"/>
<path d="M1932 228 c3 -7 24 -17 47 -23 23 -5 47 -18 52 -28 6 -9 6 -17 2 -17
-4 0 -7 -36 -5 -80 3 -78 14 -103 25 -57 4 12 3 48 -2 80 -4 31 -5 59 -3 62
10 10 78 5 105 -7 19 -9 27 -21 27 -39 0 -49 13 -119 21 -119 5 0 8 38 8 85
-2 74 -4 85 -20 85 -10 0 -20 4 -24 10 -3 5 -12 7 -20 4 -9 -4 -16 3 -21 20
-4 18 -13 26 -28 26 -11 0 -31 3 -43 6 -17 5 -23 2 -23 -9 0 -14 -4 -15 -41
-2 -51 18 -62 19 -57 3z m178 -18 c0 -13 -40 -13 -60 0 -11 7 -5 10 23 10 20
0 37 -4 37 -10z"/>
<path d="M2138 223 c7 -3 16 -2 19 1 4 3 -2 6 -13 5 -11 0 -14 -3 -6 -6z"/>
<path d="M2170 212 c0 -4 11 -12 25 -19 14 -6 25 -8 25 -4 0 4 -11 13 -25 19
-14 6 -25 8 -25 4z"/>
<path d="M1940 161 c0 -83 12 -158 26 -158 11 0 11 3 2 14 -9 11 -8 17 3 24 8
5 9 9 4 9 -6 0 -11 16 -11 35 0 19 4 35 8 35 5 0 3 9 -4 20 -11 17 -10 22 2
30 8 6 23 8 33 6 9 -2 14 0 11 6 -3 5 -17 7 -31 3 -16 -4 -22 -2 -18 5 3 5 -1
10 -9 10 -12 0 -16 -10 -16 -39z"/>
<path d="M2240 124 c0 -59 24 -124 45 -124 9 0 6 24 -9 90 -12 49 -24 90 -28
90 -5 0 -8 -25 -8 -56z"/>
</g>
</svg>
