<?xml version="1.0" standalone="no"?>
<!DOCTYPE svg PUBLIC "-//W3C//DTD SVG 20010904//EN"
 "http://www.w3.org/TR/2001/REC-SVG-20010904/DTD/svg10.dtd">
<svg version="1.0" xmlns="http://www.w3.org/2000/svg"
 width="93.000000pt" height="43.000000pt" viewBox="0 0 93.000000 43.000000"
 preserveAspectRatio="xMidYMid meet">
<metadata>
Created by potrace 1.10, written by Peter Selinger 2001-2011
</metadata>
<g transform="translate(0.000000,43.000000) scale(0.100000,-0.100000)"
fill="#000000" stroke="none">
<path d="M514 405 c-8 -19 3 -35 26 -35 22 0 33 23 17 39 -15 15 -37 14 -43
-4z"/>
<path d="M30 385 c0 -8 6 -15 13 -15 8 0 28 -41 49 -102 30 -89 38 -103 59
-106 22 -3 27 5 58 99 19 55 40 103 48 106 7 3 13 11 13 19 0 10 -13 14 -45
14 -32 0 -45 -4 -45 -14 0 -8 6 -16 13 -18 11 -2 8 -20 -12 -81 l-26 -78 -27
80 c-21 64 -23 81 -12 81 8 0 14 7 14 15 0 11 -12 15 -50 15 -38 0 -50 -4 -50
-15z"/>
<path d="M647 339 c-32 -19 -49 -74 -37 -119 12 -45 33 -60 82 -60 45 0 63 13
51 35 -7 12 -13 14 -17 6 -9 -15 -49 -14 -64 1 -17 17 -15 84 4 102 22 22 44
20 44 -5 0 -15 4 -19 16 -15 9 3 18 6 20 6 2 0 4 11 4 24 0 34 -62 49 -103 25z"/>
<path d="M825 338 c-34 -19 -44 -41 -45 -90 0 -35 5 -53 20 -68 31 -31 120
-26 120 7 0 11 -8 12 -35 7 -22 -4 -41 -2 -50 6 -24 20 -17 35 16 37 41 3 69
29 69 64 0 43 -50 63 -95 37z m59 -33 c5 -15 -28 -45 -51 -45 -18 0 -16 25 3
44 19 20 40 20 48 1z"/>
<path d="M500 325 c0 -8 5 -15 10 -15 6 0 10 -27 10 -60 0 -33 -4 -60 -10 -60
-5 0 -10 -7 -10 -15 0 -11 11 -15 43 -15 32 0 44 4 44 15 0 8 -6 15 -14 15
-10 0 -13 19 -13 75 l0 75 -30 0 c-20 0 -30 -5 -30 -15z"/>
<path d="M311 287 c-52 -18 -76 -58 -76 -126 0 -94 40 -141 120 -141 74 0 125
54 125 134 0 102 -79 165 -169 133z m84 -27 c78 -30 63 -207 -18 -211 -75 -4
-109 26 -110 97 -1 66 9 91 41 109 32 17 52 18 87 5z"/>
<path d="M530 68 c10 -24 24 -43 31 -43 7 0 20 19 30 43 12 28 15 42 7 40 -6
-2 -17 -20 -24 -39 l-12 -34 -16 38 c-9 20 -20 37 -26 37 -5 0 0 -19 10 -42z"/>
<path d="M632 98 c-15 -15 -16 -50 0 -66 14 -14 68 -16 68 -3 0 4 -10 6 -23 4
-14 -3 -29 2 -36 11 -12 14 -9 16 23 16 33 0 37 3 34 23 -3 25 -45 36 -66 15z
m52 -13 c4 -11 -2 -15 -26 -15 -26 0 -29 2 -18 15 7 8 18 15 25 15 7 0 15 -7
19 -15z"/>
<path d="M730 63 c0 -24 5 -43 10 -43 6 0 9 14 8 32 -2 25 2 35 22 45 l25 13
-32 -2 c-32 -2 -33 -4 -33 -45z"/>
</g>
</svg>
